<?xml version="1.0" standalone="no"?>
<!DOCTYPE svg PUBLIC "-//W3C//DTD SVG 20010904//EN"
 "http://www.w3.org/TR/2001/REC-SVG-20010904/DTD/svg10.dtd">
<svg version="1.0" xmlns="http://www.w3.org/2000/svg"
 width="684.000000pt" height="684.000000pt" viewBox="0 0 684.000000 684.000000"
 preserveAspectRatio="xMidYMid meet">
<metadata>
Created by potrace 1.14, written by Peter Selinger 2001-2017
</metadata>
<g transform="translate(0.000000,684.000000) scale(0.100000,-0.100000)"
fill="#000000" stroke="none">
<path d="M4574 5049 c-2 -4 73 -80 168 -170 94 -90 197 -189 228 -219 31 -30
98 -95 149 -144 l93 -90 -93 -89 c-142 -135 -425 -406 -484 -462 -132 -127
-439 -421 -549 -526 -66 -64 -152 -146 -191 -182 -38 -37 -73 -66 -77 -65 -6
3 -172 161 -423 403 -40 39 -148 142 -240 230 -229 218 -276 264 -377 361 -47
46 -90 84 -95 84 -5 0 -49 -39 -99 -86 -49 -47 -165 -158 -258 -247 -93 -89
-192 -184 -220 -212 -29 -27 -141 -135 -250 -240 -110 -104 -225 -215 -256
-245 -31 -30 -139 -134 -240 -230 -101 -96 -209 -200 -240 -230 -159 -153
-454 -437 -494 -474 -25 -23 -46 -47 -46 -53 0 -8 296 -299 371 -364 l23 -20
44 43 c25 24 66 63 92 88 25 25 126 122 225 215 98 94 201 193 230 220 28 28
139 133 245 235 106 102 214 205 240 230 26 25 127 122 225 215 97 94 228 218
289 277 61 59 113 108 116 108 3 0 40 -33 82 -72 130 -125 408 -390 477 -457
116 -111 393 -377 486 -465 50 -47 94 -86 98 -86 5 0 21 12 36 28 16 15 110
106 211 202 100 96 206 198 235 225 28 28 134 129 235 225 101 96 205 195 230
220 26 25 125 119 220 210 95 91 199 190 230 220 31 30 131 125 221 212 90 86
166 159 169 162 6 6 42 -27 300 -274 96 -93 216 -207 265 -254 l90 -85 3 811
c1 446 0 813 -2 816 -7 7 -1687 8 -1692 1z"/>
</g>
</svg>
