<svg width="21" height="24" viewBox="0 0 20 24" fill="none" xmlns="http://www.w3.org/2000/svg">
<path d="M3.75 6.23174C3.75 2.85539 6.54822 0.118317 10 0.118317C13.4518 0.118317 16.25 2.85539 16.25 6.23174C16.25 9.60809 13.4518 12.3452 10 12.3452C6.54822 12.3452 3.75 9.60809 3.75 6.23174ZM10 9.8998C12.0711 9.8998 13.75 8.25755 13.75 6.23174C13.75 4.20593 12.0711 2.56369 10 2.56369C7.92893 2.56369 6.25 4.20593 6.25 6.23174C6.25 8.25755 7.92893 9.8998 10 9.8998Z" fill="#14151A"/>
<path d="M2.92893 16.4328C1.05357 18.2672 0 20.7551 0 23.3493H2.5C2.5 21.4037 3.29018 19.5377 4.6967 18.1619C6.10322 16.7861 8.01088 16.0132 10 16.0132C11.9891 16.0132 13.8968 16.7861 15.3033 18.1619C16.7098 19.5377 17.5 21.4037 17.5 23.3493H20C20 20.7551 18.9464 18.2672 17.0711 16.4328C15.1957 14.5984 12.6522 13.5679 10 13.5679C7.34784 13.5679 4.8043 14.5984 2.92893 16.4328Z" fill="#14151A"/>
</svg>
